<svg width="24" height="24" viewBox="0 0 24 24" fill="none" xmlns="http://www.w3.org/2000/svg">
<path fill-rule="evenodd" clip-rule="evenodd" d="M4.35132 22.3214L11.731 18.3584C11.8138 18.3142 11.9062 18.291 12 18.291C12.0938 18.291 12.1862 18.3142 12.269 18.3584L19.6492 22.3216C19.8408 22.4241 20.0555 22.4751 20.2725 22.4696C20.4895 22.4641 20.7014 22.4024 20.8877 22.2905C21.0739 22.1785 21.2281 22.0201 21.3354 21.8306C21.4427 21.6411 21.4994 21.4261 21.5 21.2081V4.22414C21.5 3.76687 21.3191 3.32833 20.9971 3.00499C20.6752 2.68165 20.2385 2.5 19.7831 2.5H4.21687C3.76153 2.5 3.32483 2.68165 3.00286 3.00499C2.68088 3.32833 2.5 3.76687 2.5 4.22414V21.209C2.50058 21.427 2.55727 21.6411 2.66456 21.8306C2.77185 22.0201 2.9261 22.1785 3.11235 22.2905C3.29858 22.4024 3.51049 22.4641 3.72748 22.4696C3.94448 22.4751 4.15972 22.4238 4.35132 22.3214Z" fill="black"/>
</svg>
