<svg width="24" height="24" viewBox="0 0 24 24" fill="none" xmlns="http://www.w3.org/2000/svg">
<path fill-rule="evenodd" clip-rule="evenodd" d="M2.79289 2.79289C2.98043 2.60536 3.23478 2.5 3.5 2.5H20.5C20.7652 2.5 21.0196 2.60536 21.2071 2.79289C21.3946 2.98043 21.5 3.23478 21.5 3.5V21.2995C21.5 21.9793 20.7751 22.4137 20.1756 22.0931L12.7072 18.0989C12.4897 17.9826 12.2467 17.9217 12 17.9217C11.7533 17.9217 11.5102 17.9826 11.2927 18.099L3.23673 22.4084C2.90334 22.5868 2.5 22.3453 2.5 21.967V3.5C2.5 3.23478 2.60536 2.98043 2.79289 2.79289ZM20.5 3.5H3.5V21.1335L10.8213 17.2171C11.1839 17.0232 11.5888 16.9217 12 16.9217C12.4112 16.9217 12.8162 17.0232 13.1788 17.2171L20.5 21.1326V3.5Z" fill="black"/>
</svg>
