<svg width="24" height="24" viewBox="0 0 24 24" fill="none" xmlns="http://www.w3.org/2000/svg">
<path fill-rule="evenodd" clip-rule="evenodd" d="M2.5 4C2.5 3.44772 2.94771 3 3.5 3H5.5H18H20.5C21.0523 3 21.5 3.44772 21.5 4V9.75C21.5 10.612 21.1576 11.4386 20.5481 12.0481C20.3113 12.2849 20.0417 12.4814 19.75 12.6331V19.75C19.75 20.3023 19.3023 20.75 18.75 20.75H5.25C4.69772 20.75 4.25 20.3023 4.25 19.75V12.6331C3.9583 12.4814 3.68871 12.2849 3.4519 12.0481C2.84241 11.4386 2.5 10.612 2.5 9.75V4ZM15.4519 12.0481C16.0614 12.6576 16.888 13 17.75 13H18.25V18.75C18.25 19.0261 18.0261 19.25 17.75 19.25H6.25C5.97386 19.25 5.75 19.0261 5.75 18.75V13H6.25C7.11195 13 7.9386 12.6576 8.5481 12.0481C8.72073 11.8755 8.87193 11.6854 9 11.4821C9.12807 11.6854 9.27927 11.8755 9.4519 12.0481C10.0614 12.6576 10.888 13 11.75 13H12.25C13.112 13 13.9386 12.6576 14.5481 12.0481C14.7207 11.8755 14.8719 11.6854 15 11.4821C15.1281 11.6854 15.2793 11.8755 15.4519 12.0481ZM8 4.8C8 4.63431 7.86569 4.5 7.7 4.5H4.3C4.13431 4.5 4 4.63431 4 4.8V9.75C4 10.2141 4.18437 10.6592 4.51256 10.9874C4.84075 11.3156 5.28587 11.5 5.75 11.5H6.25C6.71413 11.5 7.15925 11.3156 7.48744 10.9874C7.81563 10.6592 8 10.2141 8 9.75V4.8ZM10.3 4.5C10.1343 4.5 10 4.63431 10 4.8V9.75C10 10.2141 10.1844 10.6592 10.5126 10.9874C10.8408 11.3156 11.2859 11.5 11.75 11.5H12.25C12.7141 11.5 13.1592 11.3156 13.4874 10.9874C13.8156 10.6592 14 10.2141 14 9.75V4.8C14 4.63431 13.8657 4.5 13.7 4.5H10.3ZM16.3 4.5C16.1343 4.5 16 4.63431 16 4.8V9.75C16 10.2141 16.1844 10.6592 16.5126 10.9874C16.8408 11.3156 17.2859 11.5 17.75 11.5H18.25C18.7141 11.5 19.1592 11.3156 19.4874 10.9874C19.8156 10.6592 20 10.2141 20 9.75V4.8C20 4.63431 19.8657 4.5 19.7 4.5H16.3Z" fill="black"/>
</svg>
